<svg width="154" height="50" viewBox="0 0 154 50" fill="none" xmlns="http://www.w3.org/2000/svg">
<mask id="mask0" mask-type="alpha" maskUnits="userSpaceOnUse" x="69" y="0" width="85" height="34">
<path fill-rule="evenodd" clip-rule="evenodd" d="M69.6289 0.148438H153.285V33.5085H69.6289V0.148438Z" fill="white"/>
</mask>
<g mask="url(#mask0)">
<path fill-rule="evenodd" clip-rule="evenodd" d="M69.6289 0.177161L77.0853 0.148438H80.6348H86.1401C91.1199 0.148438 95.1943 4.22291 95.1943 9.20323V10.3187C95.1943 15.299 91.1172 19.0963 86.1401 19.2479L82.0103 19.3734C85.331 17.8463 86.7199 13.9889 86.306 10.516C85.9731 7.72769 84.5369 5.04631 82.1438 4.99631L80.6348 4.9644V29.7819C80.6348 30.2655 80.7183 30.466 80.9731 30.891C81.3773 31.566 81.9172 32.241 82.4757 32.916C82.6204 33.091 82.7661 33.266 82.9119 33.441H70.0683C70.2614 33.2054 70.4507 32.966 70.6305 32.7202C71.0188 32.1894 71.3651 31.6266 71.6236 30.9995C71.7901 30.5963 71.8725 30.2974 71.8725 29.8681V3.20748C71.8209 1.81759 70.4395 1.02929 69.6289 0.177161ZM109.078 18.9915H101.199L105.019 8.10535L109.078 18.9915ZM99.6348 0.148438C100.567 1.42716 100.842 1.8761 100.946 3.01386C101.019 3.80535 100.965 4.25642 100.71 4.99684L92.0358 30.1479C91.6321 31.1814 90.7922 32.324 89.5699 33.433H99.0358C98.3337 32.8107 97.8842 32.0686 97.7209 31.1851C97.572 30.3782 97.5778 30.075 97.7534 29.2984L99.6778 23.3245H110.693L112.41 27.9277C112.589 28.4091 112.692 28.8575 112.737 29.375C112.888 31.0942 112.337 32.5085 110.972 33.5085H125.811C124.355 32.2117 123.019 30.8548 122.265 29.2064L111.431 0.148438H99.6348ZM131.3 17.9564L119.638 1.23727L118.452 0.148438H129.946L137.736 12.7878L138.363 12.2772L143.072 5.27822C144.229 3.55961 144.074 1.56174 142.424 0.148438H153.285L140.73 17.9527L140.724 30.8708L142.937 33.5016H129.443L131.345 30.9096C131.345 26.6043 131.188 22.2495 131.3 17.9564Z" fill="#005AA9"/>
</g>
<path fill-rule="evenodd" clip-rule="evenodd" d="M41.3936 11.6915V29.5197C41.3936 30.2426 41.5601 30.3723 42.0059 30.9521L44.0484 33.6149H34.2899C34.8394 32.7761 35.3888 31.9372 35.9383 31.0984C36.3628 30.4064 36.5452 30.1713 36.5452 29.3686V4.46117L33.8021 0H43.9154L60.2883 21.0888V4.28298C60.2883 3.47979 60.1293 3.22074 59.7053 2.52872C59.1558 1.68989 58.5824 0.875532 58.033 0.0367021H67.7819L65.7489 2.69894C65.3032 3.27926 65.1367 3.40851 65.1367 4.13192V34.467C61.4447 33.9809 58.0048 33.0777 54.9473 29.1691L41.3936 11.6915ZM0 0H10.3681L19.0681 24.9495L26.4479 4.28298C26.583 3.47979 26.4676 3.22074 26.1596 2.52872C25.7511 1.68989 25.3144 0.875532 24.9059 0.0367021H32.65C32.1904 1.7234 31.5133 3.57447 30.9282 5.275L20.9293 34.3319C18.1995 33.7872 15.1574 32.7074 12.8032 30.4771C11.0324 28.7995 10.4037 26.891 9.52872 24.6154L1.16809 2.4734C0.838298 1.6 0.432447 0.817021 0 0Z" fill="#EC1C24"/>
<path fill-rule="evenodd" clip-rule="evenodd" d="M104.747 42.7683V43.5842L104.775 43.5576C105.033 43.3996 105.29 43.3209 105.546 43.3209C105.576 43.3209 105.634 43.3475 105.718 43.3475L105.119 46.0555C105.09 46.1592 105.061 46.2395 104.975 46.2917C104.89 46.3172 104.833 46.3438 104.747 46.3698V46.3704H104.662C104.519 46.3704 104.377 46.3438 104.234 46.2651C104.091 46.1863 103.976 46.081 103.891 45.9241C103.805 45.7661 103.747 45.581 103.747 45.3443C103.747 45.2938 103.776 45.2406 103.776 45.1353C103.804 44.7938 103.947 44.505 104.119 44.2145C104.29 43.9528 104.49 43.7417 104.747 43.5842V42.7683C104.433 42.822 104.147 42.9002 103.861 43.006C103.462 43.1645 103.147 43.3996 102.862 43.6895C102.605 43.9528 102.377 44.2672 102.234 44.5837C102.092 44.9257 102.034 45.2411 102.034 45.556C102.034 46.0023 102.147 46.3448 102.433 46.6342C102.691 46.8964 103.09 47.055 103.604 47.055H103.834C104.062 47.0289 104.319 47.0018 104.576 47.0018H104.747V47.0012C105.176 47.0278 105.404 47.1326 105.404 47.3177C105.404 47.3704 105.404 47.422 105.346 47.5012C105.233 47.6853 105.061 47.8438 104.775 47.9757H104.747C104.461 48.1065 104.205 48.1592 103.919 48.1592H103.747C103.434 48.1592 103.147 48.1065 102.89 47.9757C102.633 47.8438 102.49 47.6597 102.49 47.422C102.49 47.3177 102.519 47.2129 102.575 47.1071L102.404 46.9757L101.262 48.1592C101.461 48.3172 101.661 48.4491 101.947 48.5528C102.204 48.6592 102.49 48.7379 102.804 48.7895C103.12 48.8417 103.434 48.8677 103.776 48.8677C104.09 48.8677 104.432 48.8417 104.747 48.8156V48.8161C104.834 48.7901 104.947 48.7651 105.034 48.7374C105.461 48.6587 105.833 48.5268 106.146 48.3683C106.462 48.2113 106.719 48.0012 106.889 47.764C107.089 47.4752 107.174 47.2385 107.174 47.0289C107.174 46.9491 107.174 46.8448 107.147 46.7911C107.089 46.7135 107.06 46.6337 106.975 46.5294C106.917 46.4241 106.861 46.3443 106.831 46.2917C106.803 46.2401 106.776 46.1597 106.776 46.0815C106.776 46.0815 106.776 46.056 106.803 46.0023L107.318 43.6635C107.346 43.506 107.374 43.3996 107.404 43.3209C107.432 43.2433 107.489 43.1901 107.576 43.1374C107.632 43.0842 107.775 43.0321 107.918 43.0321L107.975 42.7422H105.176C105.033 42.7422 104.89 42.7683 104.747 42.7683Z" fill="#EA2127"/>
<path fill-rule="evenodd" clip-rule="evenodd" d="M111.402 41.2715C111.402 41.1401 111.374 41.0087 111.288 40.93C111.231 40.8241 111.117 40.7449 111.002 40.7188C110.858 40.6672 110.745 40.6406 110.602 40.6406C110.374 40.6406 110.145 40.6928 109.945 40.8507C109.745 40.9811 109.631 41.1922 109.603 41.4284C109.603 41.4805 109.574 41.5332 109.574 41.5869C109.574 41.7965 109.659 41.9289 109.802 42.0598C109.945 42.1646 110.117 42.2183 110.317 42.2183C110.574 42.2183 110.803 42.139 111.003 42.0076C111.203 41.8502 111.346 41.6656 111.402 41.4295V41.2715Z" fill="#EA2127"/>
<path fill-rule="evenodd" clip-rule="evenodd" d="M111.058 42.6133L108.916 42.7447L108.859 43.0346C109.115 43.0606 109.259 43.167 109.259 43.376C109.259 43.4021 109.23 43.4814 109.23 43.6127L108.687 46.0042C108.631 46.2159 108.574 46.3734 108.516 46.4792C108.431 46.558 108.288 46.5846 108.088 46.5846L108.031 46.8473H110.601L110.687 46.5846C110.515 46.5585 110.43 46.533 110.372 46.4792C110.315 46.4266 110.287 46.3473 110.287 46.2686C110.287 46.2165 110.287 46.0585 110.345 45.7952L111.058 42.6133Z" fill="#EA2127"/>
<path fill-rule="evenodd" clip-rule="evenodd" d="M92.249 41.9297H91.2495L90.3064 43.1387L90.15 43.3547C89.9819 43.144 89.7553 42.9898 89.5069 42.8754C89.1915 42.7435 88.8793 42.6909 88.5075 42.6909H88.308C88.1362 42.6909 87.9644 42.6909 87.8511 42.7175V43.3488C87.9362 43.3222 88.0229 43.2951 88.108 43.2951C88.2798 43.2951 88.4505 43.3744 88.5644 43.5329C88.6798 43.6909 88.7362 43.901 88.7362 44.1903C88.7362 44.3738 88.708 44.5579 88.6798 44.7159C88.5936 45.0579 88.508 45.3467 88.3644 45.5834C88.2213 45.8467 88.0793 46.0308 87.9649 46.1355C87.9367 46.1616 87.8803 46.1882 87.85 46.2148V46.2153C87.7362 46.294 87.5936 46.3196 87.4793 46.3196C87.3367 46.3196 87.1942 46.2419 87.0793 46.0839C86.9649 45.901 86.9085 45.6898 86.9085 45.3738C86.9085 45.1898 86.9367 44.9536 86.9931 44.7164C87.0495 44.427 87.1357 44.1648 87.2505 43.9552C87.3931 43.744 87.5075 43.5595 87.6793 43.4536C87.7357 43.427 87.7931 43.3749 87.85 43.3488V42.7175C87.6793 42.7435 87.5075 42.7696 87.3362 42.8228C87.0213 42.927 86.7075 43.0595 86.4213 43.2435C86.1362 43.4265 85.8787 43.6377 85.6793 43.901C85.4511 44.1632 85.3085 44.4792 85.2224 44.8206C85.166 45.0047 85.1367 45.1627 85.1367 45.2951V45.3994C85.166 45.6627 85.2234 45.8733 85.3096 46.0834C85.4224 46.2935 85.5936 46.4781 85.766 46.6095C85.9654 46.7403 86.1947 46.8467 86.4516 46.9249C86.7085 47.0042 86.9942 47.0308 87.2803 47.0308C87.4793 47.0308 87.6505 47.0308 87.8505 47.0042V47.0036C87.9649 46.9776 88.1075 46.9254 88.25 46.8983C88.592 46.7925 88.9069 46.6621 89.2208 46.4781C89.5064 46.2935 89.7638 46.0834 89.9633 45.7946C90.1069 45.6361 90.2208 45.452 90.3069 45.2425V45.2414C90.3351 45.1361 90.392 45.0047 90.4208 44.8733C90.45 44.7159 90.4782 44.5323 90.4782 44.3483C90.4782 44.0589 90.4208 43.7962 90.3064 43.5861V43.5855C90.2782 43.5329 90.25 43.4797 90.2208 43.4526C90.2032 43.426 90.1846 43.4004 90.1649 43.3749H90.3064V43.376L91.3059 43.3754C91.2777 43.3488 91.2777 43.2956 91.2777 43.2696C91.2777 43.1914 91.2777 43.1387 91.3059 43.1121L92.249 41.9297Z" fill="#EA2127"/>
<path fill-rule="evenodd" clip-rule="evenodd" d="M97.0625 42.796C96.8917 42.6641 96.6343 42.5859 96.3487 42.5859C96.0625 42.5859 95.7779 42.6641 95.4343 42.7694C95.1194 42.8998 94.8061 43.0838 94.4917 43.3471V43.1104C94.4917 42.979 94.463 42.8748 94.463 42.7955C94.4348 42.7168 94.4061 42.6365 94.3768 42.6104L92.521 42.7423L92.4364 43.0327C92.7215 43.0327 92.8359 43.1386 92.8359 43.3482C92.8359 43.3998 92.8359 43.5062 92.8072 43.6109L92.2646 46.0562C92.2354 46.1875 92.2072 46.2663 92.1784 46.3455C92.1502 46.4242 92.0939 46.4774 92.0077 46.5306C91.8928 46.5567 91.7784 46.5822 91.6077 46.5822L91.5508 46.845L94.2077 46.8444L94.2641 46.5822C94.0072 46.5822 93.8928 46.4764 93.8928 46.2402C93.8928 46.2136 93.921 46.1077 93.9497 46.0024L94.2354 44.5312C94.2917 44.3471 94.3497 44.1891 94.4635 44.0312C94.6072 43.8737 94.7199 43.7684 94.863 43.6631C95.0348 43.5854 95.1487 43.5317 95.263 43.5317C95.4343 43.5317 95.5189 43.6375 95.5189 43.8221C95.5189 43.8742 95.5189 43.9274 95.4907 44.0056L95.0625 46.003C95.0343 46.1349 95.0061 46.2663 94.9774 46.3189C94.9492 46.3982 94.8917 46.4774 94.8348 46.504C94.7487 46.5567 94.663 46.5822 94.5194 46.5822L94.4912 46.845L97.0907 46.8444L97.1481 46.5822C96.8625 46.5822 96.7487 46.4764 96.7487 46.2657C96.7487 46.2141 96.7487 46.1077 96.7774 46.0024L97.3189 43.6109C97.3481 43.5322 97.3481 43.4785 97.3481 43.4003C97.3481 43.1375 97.2625 42.953 97.0625 42.796Z" fill="#EA2127"/>
<path fill-rule="evenodd" clip-rule="evenodd" d="M85.209 41.5582C85.1526 41.6119 85.0946 41.6375 85.0372 41.6635H84.7515L84.8659 41.1641L82.5824 41.2954L82.5244 41.5582C82.6675 41.5582 82.8111 41.5853 82.8675 41.6635L82.2393 41.6641C82.1255 41.6641 82.0398 41.6641 81.9834 41.6375C81.9249 41.6375 81.8962 41.6119 81.8398 41.5593L81.6962 41.7438V41.7449L81.2696 42.3758L81.3542 42.4279C81.4404 42.3752 81.526 42.3215 81.6111 42.3215H81.6962V42.321C81.7818 42.2949 81.8686 42.2949 81.9537 42.2949H82.8951L82.8388 42.6103C82.7526 42.6103 82.668 42.5848 82.5537 42.5848C82.4675 42.5587 82.3255 42.5587 82.1824 42.5587C82.0116 42.5587 81.868 42.5587 81.6962 42.5848C81.3818 42.6109 81.0967 42.6896 80.8382 42.7954C80.4388 42.9795 80.0957 43.1901 79.81 43.4524C79.5244 43.7412 79.3249 44.0306 79.1813 44.3726C79.0382 44.6869 78.9531 45.0034 78.9531 45.3194C78.9531 45.5284 78.9829 45.7396 79.0686 45.9242C79.1255 46.1071 79.2404 46.2651 79.3824 46.397C79.4973 46.5295 79.6973 46.6603 79.8967 46.7385C80.0967 46.8178 80.3537 46.8444 80.6398 46.8444H81.6962V46.213H81.5249C81.3249 46.213 81.1249 46.1337 80.9531 45.9763C80.7824 45.8183 80.6973 45.5816 80.6973 45.2673C80.6973 45.1353 80.7249 45.0295 80.7537 44.9252C80.8116 44.6093 80.9531 44.2938 81.1537 44.03C81.2967 43.821 81.4967 43.6364 81.6962 43.505C81.7537 43.4784 81.7824 43.4518 81.8398 43.4258C82.0967 43.2938 82.4111 43.2167 82.6962 43.2167L82.0967 45.8715C82.0686 45.9774 82.0122 46.0566 81.8967 46.1348C81.8404 46.1603 81.7824 46.1875 81.6967 46.2135V46.8449H84.0388L84.0675 46.5827C83.8675 46.5827 83.7531 46.504 83.7531 46.3194C83.7531 46.2407 83.7818 46.1353 83.81 46.0029L84.61 42.3492C84.667 42.3758 84.7239 42.4013 84.7526 42.4279L85.3521 41.5864L85.209 41.5582Z" fill="#EA2127"/>
<path fill-rule="evenodd" clip-rule="evenodd" d="M73.4983 43.348L72.8988 46.056C72.8988 46.1597 72.8408 46.2401 72.7557 46.2917C72.6695 46.3177 72.6121 46.3443 72.527 46.3704V46.3709H72.4419C72.2993 46.3709 72.1573 46.3438 72.0137 46.2656C71.8701 46.1869 71.7557 46.0815 71.6706 45.9241C71.5855 45.7661 71.5573 45.5815 71.5573 45.3448V45.1358C71.6142 44.7938 71.7275 44.5055 71.8993 44.2151C72.0701 43.9534 72.2701 43.7417 72.527 43.5842V43.5847L72.5563 43.5581C72.8121 43.4002 73.0701 43.3214 73.3275 43.3214C73.3557 43.3214 73.4126 43.348 73.4983 43.348ZM72.527 42.7688V42.7683C72.2126 42.822 71.9281 42.9007 71.6419 43.0065C71.2701 43.1645 70.9275 43.3996 70.6424 43.6901C70.3855 43.9534 70.185 44.2677 70.0424 44.5837C69.8988 44.9257 69.8142 45.2417 69.8142 45.5565C69.8142 46.0023 69.9568 46.3448 70.2142 46.6347C70.4701 46.897 70.8701 47.055 71.385 47.055H71.6132C71.8414 47.0289 72.0983 47.0023 72.3552 47.0023H72.527V47.0018C72.9839 47.0284 73.1839 47.1331 73.1839 47.3177C73.1839 47.3704 73.1839 47.4225 73.1265 47.5018C73.0121 47.6858 72.8414 47.8438 72.5563 47.9762H72.5275H72.527C72.2419 48.1065 71.9839 48.1592 71.7275 48.1592H71.5275C71.2137 48.1592 70.9281 48.1065 70.6711 47.9762C70.4148 47.8438 70.2711 47.6597 70.2711 47.4225C70.2711 47.3177 70.2993 47.2135 70.3563 47.1071L70.185 46.9762L69.1562 48.0534V48.2374C69.2999 48.3693 69.4993 48.4746 69.7286 48.5534C69.985 48.6592 70.2711 48.7379 70.5855 48.7901C70.8999 48.8422 71.2142 48.8677 71.5578 48.8677C71.8706 48.8677 72.2132 48.8422 72.527 48.8161V48.8167C72.6121 48.7906 72.7281 48.7656 72.8408 48.7374C73.2403 48.6592 73.6116 48.5268 73.9265 48.3688C74.269 48.2119 74.4983 48.0018 74.6685 47.764C74.8695 47.4757 74.9839 47.239 74.9839 47.0289C74.9839 46.9496 74.9557 46.8448 74.9275 46.7917C74.8988 46.7135 74.8403 46.6342 74.7557 46.5294C74.6972 46.4241 74.6403 46.3448 74.6121 46.2922C74.5844 46.2401 74.5557 46.1603 74.5557 46.0821C74.5557 46.0821 74.5557 46.056 74.5844 46.0028L75.0983 43.6635C75.1275 43.506 75.1552 43.4002 75.1834 43.3214C75.2121 43.2433 75.2701 43.1906 75.3552 43.1379C75.4408 43.0842 75.5552 43.0326 75.6977 43.0326L75.7828 42.7422L72.9557 42.7427C72.8126 42.7427 72.6695 42.7688 72.527 42.7688Z" fill="#EA2127"/>
<path fill-rule="evenodd" clip-rule="evenodd" d="M69.245 43.4014C69.245 43.2439 69.2168 43.1131 69.1588 43.0083C69.1024 42.928 69.046 42.8758 68.9609 42.796C68.7896 42.6641 68.5322 42.5859 68.2471 42.5859C67.9599 42.5859 67.6758 42.6641 67.3604 42.7694C67.0178 42.9014 66.7045 43.0854 66.3902 43.3482V43.1115C66.3902 42.9801 66.3902 42.8748 66.3609 42.7966C66.3327 42.7179 66.3327 42.6375 66.2763 42.6115L64.4194 42.7439L64.362 43.0338C64.6184 43.0338 64.762 43.1391 64.762 43.3492C64.762 43.4014 64.7338 43.5067 64.7338 43.612L64.162 46.0572C64.162 46.1886 64.1056 46.2684 64.0769 46.3466C64.0482 46.4258 63.9902 46.479 63.9051 46.5317C63.8205 46.5572 63.6774 46.5833 63.5051 46.5833L63.4492 46.846H66.1056L66.162 46.5827C65.9338 46.5827 65.7902 46.478 65.7902 46.2407C65.7902 46.2152 65.8194 46.1093 65.8476 46.0035L66.1333 44.5322C66.1896 44.3482 66.2476 44.1902 66.3902 44.0322C66.5045 43.8748 66.6184 43.7705 66.7896 43.6641C66.9322 43.5859 67.0471 43.5333 67.1609 43.5333C67.3322 43.5333 67.4178 43.6386 67.4178 43.8232C67.4178 43.8753 67.4178 43.929 67.3891 44.0067L66.9896 46.004C66.9317 46.1365 66.9035 46.2684 66.8753 46.32C66.846 46.3992 66.7891 46.479 66.7317 46.5046C66.646 46.5572 66.5599 46.5833 66.4173 46.5833L66.3891 46.846H68.9886L69.045 46.5833C68.788 46.5833 68.6455 46.478 68.6455 46.2673C68.6455 46.2157 68.6455 46.1099 68.6737 46.004L69.1588 43.928L69.2168 43.612C69.245 43.5333 69.245 43.4796 69.245 43.4014Z" fill="#EA2127"/>
<path fill-rule="evenodd" clip-rule="evenodd" d="M69.1585 48.2369V48.0528L69.0452 48.1592C69.074 48.1848 69.1022 48.2108 69.1585 48.2369Z" fill="#EA2127"/>
<path fill-rule="evenodd" clip-rule="evenodd" d="M63.2398 43.4531C63.0685 43.1919 62.811 43.0084 62.5259 42.876C62.2121 42.7441 61.8972 42.6914 61.5259 42.6914H61.3259C61.1552 42.6914 60.9839 42.6914 60.8408 42.718V43.3494C60.9254 43.3223 61.0408 43.2962 61.1259 43.2962C61.2972 43.2962 61.468 43.3754 61.5823 43.5334C61.6972 43.6914 61.7541 43.9015 61.7541 44.1909C61.7541 44.3744 61.7259 44.5584 61.6972 44.7164C61.6116 45.059 61.5254 45.3473 61.3834 45.584C61.2398 45.8478 61.0972 46.0308 60.9547 46.1361C60.8967 46.1622 60.8685 46.1893 60.8403 46.2153V46.2164C60.7254 46.2946 60.5834 46.3207 60.4695 46.3207C60.3259 46.3207 60.1844 46.243 60.0701 46.0845C59.9552 45.9015 59.8977 45.6909 59.8977 45.3744C59.8977 45.1909 59.9259 44.9542 59.9839 44.7169C60.0403 44.4281 60.1254 44.1653 60.2403 43.9558C60.3828 43.7446 60.4967 43.5606 60.6685 43.4542C60.7254 43.4276 60.7828 43.3754 60.8403 43.3499V42.7185C60.6695 42.7441 60.4977 42.7701 60.3259 42.8239C60.0116 42.9281 59.6983 43.0606 59.4126 43.2441C59.1259 43.4276 58.8695 43.6387 58.6695 43.9015C58.4414 44.1643 58.2983 44.4802 58.2126 44.8217C58.2015 44.8526 58.1903 44.8877 58.1807 44.9239C58.1818 44.9254 58.1828 44.9265 58.1839 44.9276C58.1839 45.0052 58.1562 45.0856 58.1562 45.1632V45.6366C58.1839 45.7946 58.2424 45.9526 58.2988 46.084C58.4137 46.2941 58.5557 46.4786 58.7552 46.61C58.9552 46.7414 59.185 46.8473 59.4419 46.9254C59.6983 47.0047 59.9839 47.0313 60.2695 47.0313C60.4695 47.0313 60.6414 47.0313 60.8408 47.0047V47.0042C60.9839 46.9776 61.1265 46.9249 61.269 46.8978C61.6126 46.7925 61.9249 46.6616 62.2403 46.4781C62.5265 46.293 62.7834 46.0829 62.9834 45.7935C63.2116 45.5302 63.3541 45.2153 63.4392 44.8733C63.468 44.7159 63.4967 44.5318 63.4967 44.3483C63.4967 44.0058 63.4116 43.6909 63.2398 43.4531Z" fill="#EA2127"/>
<path fill-rule="evenodd" clip-rule="evenodd" d="M63.3528 40.01C63.5246 39.9573 63.6097 39.8786 63.6964 39.7743C63.7826 39.6695 63.8108 39.5637 63.8108 39.4584C63.8108 39.3004 63.7533 39.1685 63.6389 39.0642C63.5538 38.9584 63.4108 38.9062 63.2671 38.9062C63.0671 38.9062 62.8677 39.0116 62.6671 39.2211L61.582 40.2727L61.7831 40.5882L63.3528 40.01Z" fill="#EA2127"/>
<path fill-rule="evenodd" clip-rule="evenodd" d="M60.8408 41.8748V41.8743L61.4695 41.6897L62.6689 42.0838L62.9546 41.6897L61.6684 40.8477L60.8408 41.2168V41.2173L59.9844 41.6115L60.0977 42.0849L60.8408 41.8748Z" fill="#EA2127"/>
<path fill-rule="evenodd" clip-rule="evenodd" d="M58.16 45.0851C58.16 45.0372 58.1701 44.9793 58.1844 44.9239C58.16 44.8968 58.16 44.8473 58.16 44.8218V45.0851Z" fill="#EA2127"/>
<path fill-rule="evenodd" clip-rule="evenodd" d="M57.3152 44.293C57.1157 44.135 56.8301 44.0286 56.5157 43.9515C56.2024 43.8461 55.9152 43.793 55.687 43.7142C55.4588 43.6616 55.3157 43.5834 55.3157 43.4775C55.3157 43.4509 55.3445 43.4249 55.3445 43.3988C55.4301 43.2414 55.6578 43.136 56.0014 43.136C56.1721 43.136 56.3721 43.1898 56.5439 43.2414C56.7434 43.293 56.8854 43.3722 57.0008 43.4775C57.1152 43.5828 57.1721 43.7142 57.1721 43.8722L57.4285 43.8727L57.6567 42.5312C57.5998 42.61 57.4854 42.6626 57.3147 42.6626C57.228 42.6626 57.0567 42.636 56.7716 42.61C56.4854 42.5584 56.2572 42.5318 56.029 42.5318C55.5998 42.5318 55.2003 42.61 54.8296 42.7158C54.487 42.8477 54.2014 43.0057 53.9727 43.2158C53.7439 43.4509 53.6014 43.6892 53.5439 43.9525C53.5157 44.0302 53.5157 44.1366 53.5157 44.2142C53.5157 44.5041 53.6301 44.7142 53.8312 44.8717C54.0301 45.0036 54.2881 45.11 54.5732 45.1621C54.8588 45.2408 55.1439 45.294 55.4301 45.3717C55.7147 45.4515 55.8583 45.5291 55.8583 45.6882C55.8583 45.7408 55.8301 45.8185 55.7727 45.9243C55.7445 45.977 55.6594 46.0297 55.5439 46.1078C55.4583 46.1605 55.3157 46.2137 55.1727 46.2403C55.0024 46.2919 54.8588 46.2919 54.687 46.2919C54.3439 46.2919 54.0583 46.2137 53.8301 46.0291C53.6019 45.8456 53.487 45.5557 53.487 45.1355L53.2019 45.2137L52.9727 46.9233C53.1163 46.818 53.2881 46.7908 53.4594 46.7908C53.545 46.7908 53.6594 46.7908 53.7732 46.818C53.8594 46.818 54.0019 46.844 54.145 46.8706C54.2881 46.9222 54.4019 46.9222 54.5163 46.9483C54.6317 46.9749 54.745 46.9749 54.8881 46.9749C55.345 46.9749 55.7727 46.8967 56.1163 46.7642C56.4865 46.6328 56.8019 46.4493 57.0296 46.2392C57.2588 46.0286 57.4296 45.818 57.5439 45.5812C57.587 45.4648 57.629 45.3632 57.6594 45.2648C57.6615 45.2031 57.6679 45.136 57.6876 45.0823V44.819C57.6301 44.61 57.5157 44.4243 57.3152 44.293Z" fill="#EA2127"/>
<path fill-rule="evenodd" clip-rule="evenodd" d="M57.6907 45.6355V45.1621C57.6828 45.1966 57.6737 45.2312 57.6625 45.2658C57.662 45.294 57.6615 45.3211 57.6615 45.345C57.6615 45.4509 57.6615 45.5291 57.6907 45.6355Z" fill="#EA2127"/>
<path fill-rule="evenodd" clip-rule="evenodd" d="M42.7369 48.4483C42.7076 48.4223 42.6799 48.3957 42.6512 48.3957C42.5656 48.343 42.4517 48.3169 42.3374 48.3164C42.1374 48.3164 41.9666 48.3685 41.823 48.4744C41.6512 48.5792 41.5661 48.7106 41.5087 48.8935C41.5087 48.9733 41.4805 49.026 41.4805 49.1052C41.4805 49.2627 41.5369 49.3946 41.6512 49.4728C41.7656 49.5786 41.8799 49.6047 42.0517 49.6047C42.1656 49.6047 42.2799 49.5786 42.3932 49.526C42.4799 49.4999 42.5661 49.4467 42.6512 49.3685C42.6512 49.3425 42.6799 49.3159 42.7076 49.2898C42.7938 49.185 42.8512 49.0531 42.8794 48.8941C42.9076 48.8414 42.9076 48.8153 42.9076 48.7898C42.9076 48.6324 42.8512 48.526 42.7369 48.4483Z" fill="#EA2127"/>
<path fill-rule="evenodd" clip-rule="evenodd" d="M43.5116 44.7169C43.426 45.059 43.3398 45.3478 43.1973 45.5845C43.0542 45.8478 42.9116 46.0313 42.7685 46.1366C42.7111 46.1622 42.6829 46.1893 42.6547 46.2159V46.2164C42.5393 46.2946 42.3973 46.3207 42.2834 46.3207C42.1122 46.3207 41.9978 46.243 41.884 46.085C41.7685 45.902 41.7122 45.6909 41.7122 45.3749C41.7122 45.1909 41.7403 44.9542 41.7967 44.7175C41.8552 44.4281 41.9398 44.1653 42.0547 43.9563C42.1675 43.7446 42.3111 43.5606 42.4829 43.4547C42.5393 43.4281 42.5973 43.376 42.6547 43.3499C42.7409 43.3228 42.8254 43.2962 42.9398 43.2962C43.1122 43.2962 43.2829 43.3754 43.3978 43.5334C43.5116 43.6914 43.5685 43.9015 43.5685 44.1909C43.5685 44.3749 43.5398 44.559 43.5116 44.7169ZM44.3393 42.8765C44.0265 42.7446 43.7111 42.6914 43.3398 42.6914H43.1398C42.9691 42.6914 42.7973 42.6914 42.6547 42.7185C42.4829 42.7446 42.3116 42.7701 42.1393 42.8254C41.8254 42.9302 41.5111 43.0622 41.226 43.2462C40.9398 43.4292 40.6834 43.6409 40.4834 43.9031C40.2547 44.1659 40.1116 44.4824 40.0265 44.8233C39.9696 44.9813 39.9696 45.1127 39.9414 45.2441V45.4797C39.9696 45.6903 40.0276 45.901 40.1132 46.0845C40.226 46.2941 40.3691 46.4792 40.5691 46.6106C40.7696 46.7414 40.9983 46.8473 41.2552 46.9254C41.5122 47.0047 41.7978 47.0318 42.084 47.0318C42.2834 47.0318 42.4552 47.0318 42.6552 47.0047C42.7973 46.9776 42.9393 46.9249 43.0834 46.8983C43.427 46.7925 43.7393 46.6622 44.0547 46.4781C44.3398 46.2935 44.5967 46.0834 44.7973 45.7941C45.026 45.5308 45.1685 45.2153 45.2536 44.8733C45.2824 44.7164 45.3111 44.5324 45.3111 44.3483C45.3111 44.0063 45.226 43.6909 45.0542 43.4536C44.8824 43.1925 44.6249 43.0084 44.3393 42.8765Z" fill="#EA2127"/>
<path fill-rule="evenodd" clip-rule="evenodd" d="M49.2515 45.8445C49.0797 45.9759 48.909 46.0547 48.7659 46.1073C48.5946 46.186 48.4228 46.2132 48.2803 46.2132C48.0797 46.2132 47.909 46.1594 47.7372 46.0552C47.5946 45.9765 47.4803 45.8451 47.3946 45.66C47.309 45.4765 47.2515 45.293 47.2515 45.0563V44.8711C47.3079 44.5563 47.4233 44.2674 47.567 44.0302C47.7377 43.7945 47.9372 43.61 48.1382 43.5052C48.3664 43.3733 48.5946 43.3201 48.7941 43.3201C49.0505 43.3201 49.2505 43.3988 49.4217 43.5834C49.5654 43.7408 49.6505 44.0036 49.6505 44.3456L49.9361 44.2669L49.9074 42.5312C49.8217 42.6626 49.651 42.7153 49.4505 42.7153C49.3366 42.7153 49.1648 42.6887 48.9079 42.6626C48.6223 42.61 48.4217 42.61 48.251 42.61C47.8515 42.61 47.4797 42.6882 47.0803 42.8472C46.7095 43.0312 46.367 43.2664 46.0808 43.5568C45.7951 43.8722 45.6244 44.2137 45.5095 44.5823C45.4813 44.7398 45.4531 44.9249 45.4531 45.1089C45.4531 45.4238 45.5382 45.7132 45.6813 46.0009C45.8249 46.2648 46.0526 46.4759 46.3377 46.66C46.6233 46.8445 46.9946 46.9488 47.4521 46.9754H47.709C47.8808 46.9754 48.0515 46.9754 48.2803 46.9488C48.5377 46.9227 48.6792 46.9227 48.7366 46.9227C48.9084 46.9227 48.9941 46.9488 48.9941 47.0547L49.9382 45.5275L49.7664 45.3961C49.5946 45.5802 49.4233 45.7392 49.2515 45.8445Z" fill="#EA2127"/>
<path fill-rule="evenodd" clip-rule="evenodd" d="M42.6549 41.8748V41.8743L43.2836 41.6897L44.4825 42.0838L44.7682 41.6897L43.4825 40.8477L42.6549 41.2168V41.2173L41.7969 41.6115L41.9123 42.0849L42.6549 41.8748Z" fill="#EA2127"/>
<path fill-rule="evenodd" clip-rule="evenodd" d="M39.9411 42.6104L37.797 42.7418L37.7124 43.0317C37.997 43.0578 38.1124 43.1636 38.1124 43.3471C38.1124 43.4248 38.1124 43.5312 38.0832 43.6099L37.7981 45.003C37.7417 45.161 37.6555 45.3189 37.5406 45.4764C37.3986 45.6349 37.2555 45.7668 37.0842 45.8455C36.9417 45.9503 36.7991 46.0014 36.6848 46.0014C36.5129 46.0014 36.4278 45.9237 36.4278 45.7136C36.4278 45.6604 36.4278 45.6078 36.456 45.5285L37.0848 42.6094L34.9433 42.7418L34.8571 43.0317C35.0853 43.0317 35.2002 43.1099 35.2002 43.2668C35.2002 43.3466 35.2002 43.4243 35.172 43.5301L34.6853 45.7918C34.6571 45.9237 34.6289 46.0285 34.6289 46.1072C34.6289 46.3971 34.7135 46.5812 34.9145 46.7386C35.0853 46.8705 35.3151 46.9487 35.6002 46.9487C35.914 46.9487 36.2566 46.8705 36.5997 46.7131C36.9433 46.5557 37.2566 46.3705 37.5145 46.1078C37.4864 46.3711 37.4576 46.5301 37.4576 46.6078C37.4576 46.686 37.4864 46.7652 37.5145 46.8445H39.4853L39.5417 46.5817C39.3129 46.5817 39.1699 46.4764 39.1699 46.2658C39.1699 46.1876 39.1981 46.0817 39.2262 45.9243L39.9411 42.6104Z" fill="#EA2127"/>
<path fill-rule="evenodd" clip-rule="evenodd" d="M25.9166 42.876C25.6022 42.7441 25.2884 42.6914 24.9171 42.6914H24.7171C24.5458 42.6914 24.374 42.6914 24.2304 42.718V43.3494C24.316 43.3223 24.4304 43.2962 24.5166 43.2962C24.6873 43.2962 24.858 43.3754 24.9729 43.5334C25.0873 43.6914 25.1447 43.9015 25.1447 44.1909C25.1447 44.3744 25.1447 44.5584 25.0873 44.7164C25.0011 45.059 24.9166 45.3473 24.7729 45.584C24.6304 45.8478 24.4873 46.0308 24.3447 46.1361C24.315 46.1622 24.258 46.1893 24.2299 46.2153V46.2164C24.1166 46.2946 23.974 46.3207 23.8596 46.3207C23.7176 46.3207 23.5751 46.243 23.4602 46.0845C23.3458 45.9015 23.2889 45.6909 23.2889 45.3744C23.2889 45.1909 23.3166 44.9542 23.374 44.7169C23.4304 44.4276 23.5155 44.1653 23.6304 43.9558C23.7724 43.7446 23.8873 43.5606 24.058 43.4542C24.116 43.4276 24.1735 43.3754 24.2299 43.3499V42.7185C24.058 42.7441 23.8873 42.7701 23.7176 42.8244C23.4027 42.9286 23.0884 43.0611 22.8027 43.2446C22.5171 43.4281 22.2596 43.6393 22.0602 43.902C21.832 44.1648 21.6884 44.4808 21.6038 44.8223C21.5756 44.901 21.5469 45.0063 21.5469 45.0856V45.6106C21.5756 45.7946 21.6325 45.9526 21.6889 46.084C21.8038 46.2941 21.9751 46.4786 22.1463 46.61C22.3469 46.7414 22.5756 46.8473 22.832 46.9254C23.0894 47.0047 23.374 47.0313 23.6596 47.0313C23.8596 47.0313 24.0314 47.0313 24.2309 47.0047V47.0042C24.374 46.977 24.5171 46.9249 24.6884 46.8978C25.0027 46.7925 25.316 46.6616 25.6304 46.4776C25.9166 46.293 26.1735 46.0829 26.4017 45.7935C26.6017 45.5302 26.7453 45.2153 26.8299 44.8733C26.8586 44.7159 26.8868 44.5318 26.8868 44.3483C26.8868 44.0058 26.8022 43.6909 26.6299 43.4531C26.4591 43.1919 26.2022 43.0084 25.9166 42.876Z" fill="#EA2127"/>
<path fill-rule="evenodd" clip-rule="evenodd" d="M33.7995 45.8445C33.6277 45.9759 33.4564 46.0547 33.3128 46.1073C33.141 46.186 32.9707 46.2132 32.8277 46.2132C32.6277 46.2132 32.4559 46.1594 32.2846 46.0552C32.141 45.9765 32.0282 45.8451 31.942 45.66C31.8569 45.4765 31.7995 45.293 31.7995 45.0563V44.8711C31.8559 44.5563 31.9713 44.2674 32.1415 44.0302C32.2846 43.7945 32.4846 43.61 32.6846 43.5052C32.9128 43.3733 33.1404 43.3201 33.341 43.3201C33.5984 43.3201 33.7979 43.3988 33.9686 43.5834C34.1122 43.7408 34.1979 44.0036 34.1979 44.3456L34.5117 44.2669L34.4548 42.5312C34.3702 42.6626 34.1984 42.7153 33.9984 42.7153C33.9122 42.7153 33.7122 42.6887 33.4553 42.6626C33.1995 42.61 32.9702 42.61 32.8277 42.61C32.3989 42.61 32.0277 42.6882 31.6282 42.8472C31.2569 43.0312 30.9133 43.2664 30.6293 43.5568C30.3718 43.8722 30.1713 44.2137 30.0574 44.5823C30.0293 44.7398 30 44.9249 30 45.1089C30 45.4238 30.0856 45.7132 30.2293 46.0009C30.3718 46.2648 30.5995 46.4759 30.8851 46.66C31.2005 46.844 31.5415 46.9488 31.9989 46.9754H32.2564C32.4277 46.9754 32.5995 46.9754 32.8559 46.9488C33.084 46.9227 33.2277 46.9227 33.284 46.9227C33.4559 46.9227 33.541 46.9488 33.541 47.0547L34.5133 45.5275L34.3128 45.3961C34.142 45.5802 33.9702 45.7392 33.7995 45.8445Z" fill="#EA2127"/>
<path fill-rule="evenodd" clip-rule="evenodd" d="M21.5749 43.4025C21.5749 43.3238 21.5462 43.2451 21.5462 43.1935V43.1924C21.518 43.0084 21.4323 42.8765 21.318 42.7712C21.1462 42.6392 20.9175 42.5882 20.6318 42.5882C20.4323 42.5882 20.2323 42.6132 20.0042 42.6658C19.7754 42.7451 19.5456 42.8244 19.3175 42.9552C19.0611 43.0871 18.8611 43.2451 18.6611 43.4025L19.1467 41.168L17.0339 41.2988L16.9478 41.5621C17.2052 41.5621 17.3478 41.6669 17.3478 41.9047C17.3478 41.9557 17.3196 42.0095 17.3196 42.0882L16.4627 46.0047C16.4052 46.1621 16.3467 46.294 16.2903 46.3999C16.2052 46.5052 16.0621 46.5579 15.8627 46.5839L15.8047 46.8467H18.4047L18.4616 46.5839C18.2058 46.5579 18.0903 46.4259 18.0903 46.2158C18.0903 46.1616 18.0903 46.0839 18.1185 45.9265L18.4616 44.4802C18.4898 44.2967 18.5467 44.1382 18.6616 44.0063C18.776 43.8488 18.8898 43.743 19.0334 43.6642C19.176 43.5855 19.318 43.5329 19.4329 43.5329C19.5456 43.5329 19.6329 43.5866 19.6893 43.6382C19.7765 43.7174 19.8036 43.8233 19.8036 43.9552C19.8036 44.0323 19.8036 44.1116 19.7765 44.1903L19.4042 45.9265C19.3472 46.1095 19.2898 46.268 19.2047 46.3999C19.1175 46.5318 18.9467 46.5839 18.718 46.5839L18.6616 46.8467L21.2605 46.8462L21.318 46.5834C21.0887 46.5834 20.9749 46.5052 20.9749 46.3467C20.9749 46.2674 21.0036 46.1887 21.0318 46.0573L21.518 43.7435C21.5462 43.7174 21.5462 43.6914 21.5462 43.6648V43.6653C21.5462 43.5871 21.5749 43.4813 21.5749 43.4025Z" fill="#EA2127"/>
<path fill-rule="evenodd" clip-rule="evenodd" d="M15.2078 41.4296C15.1227 41.4296 14.8935 41.403 14.5217 41.3238C14.1504 41.2716 13.836 41.2466 13.5509 41.2466C12.8648 41.2716 12.2935 41.403 11.8084 41.6397C11.3233 41.8764 10.9515 42.1392 10.6653 42.4551C10.4094 42.7706 10.2094 43.0594 10.0658 43.3227C9.95199 43.5855 9.86636 43.8232 9.80997 44.0062C9.78125 44.2163 9.78125 44.4003 9.78125 44.5323C9.78125 45.0849 9.86636 45.5307 10.0956 45.8738C10.3238 46.2163 10.5812 46.4785 10.8945 46.636C11.2376 46.7929 11.4951 46.8982 11.7227 46.9253C11.9781 46.9764 12.2924 47.003 12.693 47.0557H12.835C12.9211 47.0557 13.035 47.0557 13.1504 47.0296C13.293 47.0296 13.4062 47.003 13.5222 47.003C13.6355 46.9769 13.7499 46.9769 13.836 46.9769C13.9217 46.9498 14.0073 46.9498 14.0935 46.9498C14.3211 46.9498 14.4642 47.003 14.5211 47.1083L15.6068 45.269L15.3499 45.2152C15.2653 45.3738 15.1499 45.5307 15.0068 45.6626C14.893 45.795 14.7211 45.9003 14.5504 46.0041C14.3781 46.1099 14.2078 46.1886 14.0073 46.2413C13.8078 46.2934 13.6073 46.3195 13.4366 46.3195C13.1222 46.3195 12.8653 46.2413 12.6078 46.1094C12.352 45.9519 12.1515 45.7418 12.0084 45.3993C11.8366 45.0849 11.7802 44.6892 11.7802 44.1897C11.7802 43.8227 11.8945 43.4535 12.1233 43.1121C12.3233 42.77 12.5797 42.5078 12.8935 42.3232C13.2084 42.1131 13.5504 42.0078 13.8642 42.0078C14.236 42.0078 14.5509 42.1652 14.836 42.4285C15.1217 42.7179 15.293 43.1652 15.3786 43.7429L15.6073 43.6642L15.6648 41.2461C15.5499 41.3769 15.4068 41.4296 15.2078 41.4296Z" fill="#EA2127"/>
<path fill-rule="evenodd" clip-rule="evenodd" d="M21.5457 45.6105V45.0855C21.5457 45.1631 21.5175 45.269 21.5175 45.3472C21.5175 45.4536 21.5457 45.5312 21.5457 45.6105Z" fill="#EA2127"/>
<path fill-rule="evenodd" clip-rule="evenodd" d="M136.678 45.2423C136.736 45.137 136.764 45.0046 136.822 44.8732C136.849 44.7157 136.878 44.5322 136.878 44.3482C136.878 44.0588 136.822 43.796 136.678 43.5859V45.2423Z" fill="#EA2127"/>
<path fill-rule="evenodd" clip-rule="evenodd" d="M135.079 44.7145C134.994 45.0565 134.879 45.3453 134.765 45.582C134.622 45.8453 134.479 46.0294 134.308 46.1341C134.279 46.1602 134.251 46.1868 134.193 46.2134V46.2145C134.08 46.2921 133.966 46.3182 133.852 46.3182C133.681 46.3182 133.537 46.2405 133.452 46.0825C133.338 45.8996 133.281 45.6884 133.281 45.3724C133.281 45.1884 133.309 44.9517 133.366 44.715C133.423 44.4256 133.508 44.1629 133.623 43.9538C133.737 43.7421 133.879 43.5581 134.023 43.4522C134.08 43.4256 134.137 43.3735 134.193 43.3474C134.308 43.3203 134.394 43.2937 134.509 43.2937C134.679 43.2937 134.823 43.373 134.965 43.531C135.079 43.6895 135.137 43.899 135.137 44.1884C135.137 44.3724 135.108 44.5565 135.079 44.7145ZM138.549 41.8203H137.578L136.606 43.0294V43.2368L136.523 43.3517C136.36 43.1416 136.152 42.9879 135.878 42.874C135.593 42.7421 135.251 42.6889 134.909 42.6889H134.679C134.537 42.6889 134.365 42.6889 134.193 42.7161C134.051 42.7421 133.879 42.7677 133.708 42.8219C133.366 42.9267 133.081 43.0586 132.766 43.2427C132.48 43.4256 132.252 43.6373 132.023 43.9001C131.823 44.1629 131.682 44.4788 131.568 44.8198C131.568 44.8985 131.539 44.9772 131.539 45.0831V45.6347C131.539 45.7927 131.596 45.9506 131.682 46.082C131.794 46.2916 131.939 46.4767 132.137 46.6081C132.339 46.7389 132.567 46.8448 132.824 46.923C133.081 47.0022 133.337 47.0294 133.652 47.0294C133.824 47.0294 134.024 47.0294 134.194 47.0022V47.0017C134.366 46.9756 134.509 46.9235 134.65 46.8969C134.992 46.7905 135.308 46.6607 135.593 46.4767C135.908 46.2916 136.165 46.082 136.365 45.7927C136.507 45.6347 136.62 45.4506 136.678 45.2405V43.5841C136.65 43.531 136.622 43.4778 136.593 43.4512C136.576 43.424 136.558 43.3985 136.539 43.3735H136.678V43.2661L137.635 43.2655C137.606 43.2395 137.578 43.1857 137.578 43.1597C137.578 43.082 137.606 43.0294 137.635 43.0028L138.549 41.8203Z" fill="#EA2127"/>
<path fill-rule="evenodd" clip-rule="evenodd" d="M143.504 43.6104V43.3998C143.504 43.137 143.418 42.9524 143.247 42.7955C143.047 42.6636 142.819 42.5859 142.505 42.5859C142.248 42.5859 141.933 42.6636 141.619 42.7689C141.303 42.8998 140.988 43.0833 140.675 43.3466V43.1104C140.646 42.979 140.646 42.8742 140.618 42.795C140.618 42.7163 140.589 42.6359 140.561 42.6104L138.705 42.7423L138.618 43.0327C138.875 43.0327 139.018 43.1381 139.018 43.3476C139.018 43.3998 139.018 43.5056 138.99 43.6104L138.447 46.0556C138.418 46.187 138.39 46.2657 138.362 46.3455C138.334 46.4248 138.247 46.4774 138.163 46.5301C138.076 46.5562 137.963 46.5817 137.791 46.5817L137.734 46.8444H140.362L140.447 46.5817C140.19 46.5817 140.075 46.4764 140.075 46.2397C140.075 46.2136 140.075 46.1072 140.104 46.0019L140.419 44.5306C140.447 44.3466 140.533 44.1886 140.647 44.0306C140.762 43.8737 140.904 43.7679 141.047 43.6631C141.189 43.5849 141.332 43.5317 141.446 43.5317C141.618 43.5317 141.704 43.637 141.704 43.8216C141.704 43.8737 141.675 43.9274 141.675 44.0051L141.247 46.0024C141.218 46.1349 141.189 46.2657 141.161 46.3184C141.133 46.3982 141.076 46.4774 140.989 46.5035C140.933 46.5562 140.818 46.5817 140.704 46.5817L140.647 46.8444H143.247L143.305 46.5817C143.047 46.5817 142.905 46.4764 142.905 46.2657C142.905 46.2136 142.933 46.1072 142.961 46.0024L143.504 43.6104Z" fill="#EA2127"/>
<path fill-rule="evenodd" clip-rule="evenodd" d="M115.945 42.7452C115.716 42.667 115.402 42.6133 115.002 42.6133C114.688 42.6133 114.402 42.6133 114.174 42.6659C114.089 42.6659 113.974 42.692 113.86 42.7186V42.7181C113.746 42.7436 113.631 42.7697 113.488 42.7973C113.26 42.8495 113.089 42.8755 113.031 42.8755C112.917 42.8755 112.831 42.8223 112.746 42.7436L112.203 44.2691L112.431 44.3479C112.546 44.1377 112.688 43.9542 112.888 43.7697C113.089 43.6117 113.288 43.5069 113.516 43.401C113.631 43.3484 113.745 43.3213 113.86 43.2952C113.974 43.2952 114.088 43.2686 114.174 43.2686C114.374 43.2686 114.546 43.3213 114.66 43.401C114.774 43.4803 114.831 43.5856 114.831 43.7431C114.831 43.8489 114.803 43.9542 114.746 44.058C114.517 44.1106 114.231 44.1638 113.86 44.242V44.8207L113.888 44.8213C114.116 44.6893 114.374 44.6377 114.63 44.5851C114.602 44.8479 114.516 45.1112 114.402 45.3213C114.288 45.5569 114.146 45.742 114.002 45.8734C113.945 45.926 113.917 45.9516 113.86 45.9787V46.5835C114.002 46.5048 114.145 46.425 114.26 46.3202C114.288 46.4787 114.288 46.5835 114.316 46.6627C114.345 46.7404 114.373 46.7931 114.43 46.8463H116.258L116.316 46.584C116.087 46.584 115.973 46.5053 115.973 46.3473C115.973 46.3207 115.973 46.242 116.002 46.1106L116.516 43.876C116.544 43.7707 116.544 43.692 116.544 43.6133C116.544 43.4282 116.487 43.2707 116.402 43.1133C116.316 42.9819 116.144 42.8505 115.945 42.7452Z" fill="#EA2127"/>
<path fill-rule="evenodd" clip-rule="evenodd" d="M131.28 42.7717C131.109 42.6392 130.879 42.5882 130.593 42.5882C130.423 42.5882 130.194 42.6137 129.965 42.6664C129.737 42.7456 129.509 42.8244 129.28 42.9557C129.053 43.0876 128.824 43.2456 128.625 43.4031L129.138 41.168L126.995 41.2994L126.939 41.5621C127.195 41.5621 127.311 41.6674 127.311 41.9047C127.311 41.9563 127.311 42.0095 127.281 42.0882L126.454 46.0047C126.397 46.1626 126.339 46.294 126.254 46.3999C126.197 46.5057 126.054 46.5579 125.826 46.5839L125.797 46.8467H128.367L128.426 46.5839C128.197 46.5584 128.053 46.4265 128.053 46.2164C128.053 46.1621 128.081 46.0845 128.111 45.927L128.426 44.4807C128.482 44.2967 128.538 44.1387 128.652 44.0063C128.739 43.8494 128.882 43.743 129.025 43.6642C129.167 43.5861 129.281 43.5334 129.424 43.5334C129.538 43.5334 129.625 43.5866 129.681 43.6387C129.737 43.718 129.765 43.8233 129.765 43.9557C129.765 44.0329 129.765 44.1121 129.737 44.1908L129.365 45.927C129.338 46.11 129.281 46.268 129.166 46.3999C129.08 46.5323 128.937 46.5839 128.68 46.5839L128.625 46.8467H131.223L131.28 46.5839C131.051 46.5839 130.965 46.5052 130.965 46.3472C130.965 46.268 130.965 46.1887 130.993 46.0579L131.508 43.744C131.508 43.718 131.508 43.6919 131.537 43.6653V43.193C131.479 43.0089 131.422 42.8765 131.28 42.7717Z" fill="#EA2127"/>
<path fill-rule="evenodd" clip-rule="evenodd" d="M131.538 45.6381V45.0859C131.509 45.1636 131.509 45.27 131.509 45.3482C131.509 45.454 131.509 45.5317 131.538 45.6381Z" fill="#EA2127"/>
<path fill-rule="evenodd" clip-rule="evenodd" d="M116.884 40.2981C116.884 40.1401 116.827 40.0348 116.769 39.9284C116.684 39.8247 116.569 39.772 116.427 39.7193C116.284 39.6672 116.112 39.6406 115.941 39.6406C115.713 39.6406 115.513 39.6672 115.341 39.7193C115.313 39.7193 115.256 39.7454 115.141 39.772C115.026 39.7981 114.941 39.7981 114.913 39.8247H114.769C114.685 39.8247 114.626 39.7981 114.598 39.7454L114.484 40.8231H114.627V40.8225C114.657 40.5592 114.771 40.3757 114.943 40.2183C115.143 40.0869 115.343 40.0082 115.571 40.0082C115.799 40.0598 115.914 40.1401 115.914 40.3241C115.914 40.4295 115.857 40.5592 115.714 40.7172C115.599 40.8491 115.428 40.9545 115.257 41.0598C115.057 41.1124 114.887 41.2449 114.715 41.3752C114.571 41.5061 114.487 41.638 114.487 41.7954C114.487 41.8486 114.487 41.9018 114.515 41.9529C114.629 41.8486 114.771 41.822 114.972 41.822H115.227C115.227 41.7954 115.199 41.7699 115.199 41.7438C115.199 41.6646 115.256 41.5858 115.371 41.5321C115.456 41.4805 115.656 41.4013 115.886 41.2965C116.142 41.1912 116.342 41.113 116.514 41.0071C116.657 40.9018 116.742 40.7704 116.799 40.6396C116.856 40.5082 116.884 40.4029 116.884 40.2981Z" fill="#EA2127"/>
<path fill-rule="evenodd" clip-rule="evenodd" d="M121.544 42.5859C121.287 42.5859 120.972 42.6636 120.658 42.7694C120.343 42.8998 120.028 43.0838 119.715 43.3471V43.1104C119.686 42.979 119.686 42.8742 119.659 42.795C119.659 42.7168 119.629 42.6365 119.602 42.6104L117.744 42.7423L117.66 43.0327C117.917 43.0327 118.059 43.1381 118.059 43.3476C118.059 43.3998 118.059 43.5056 118.03 43.6104L117.488 46.0556C117.459 46.1875 117.431 46.2657 117.402 46.3455C117.373 46.4248 117.288 46.4774 117.202 46.5301C117.117 46.5562 117.002 46.5822 116.831 46.5822L116.773 46.8444H119.401L119.487 46.5817C119.23 46.5817 119.116 46.4764 119.116 46.2397C119.116 46.2136 119.116 46.1077 119.145 46.0019L119.459 44.5306C119.487 44.3471 119.573 44.1886 119.687 44.0306C119.802 43.8737 119.944 43.7684 120.087 43.6631C120.23 43.5849 120.373 43.5317 120.487 43.5317C120.658 43.5317 120.744 43.637 120.744 43.8221C120.744 43.8737 120.714 43.9274 120.714 44.0051L120.287 46.0024C120.259 46.1349 120.23 46.2657 120.202 46.3189C120.173 46.3982 120.115 46.4774 120.029 46.5035C119.973 46.5562 119.859 46.5822 119.744 46.5822L119.687 46.8444H122.287L122.343 46.5817C122.086 46.5817 121.944 46.4764 121.944 46.2657C121.944 46.2136 121.973 46.1077 122 46.0024L122.544 43.6104V43.3998C122.544 43.137 122.458 42.9524 122.287 42.796C122.086 42.6636 121.858 42.5859 121.544 42.5859Z" fill="#EA2127"/>
<path fill-rule="evenodd" clip-rule="evenodd" d="M113.516 46.0831C113.432 46.0831 113.317 46.0571 113.231 46.0039C113.145 45.9268 113.088 45.8204 113.088 45.689C113.088 45.5305 113.173 45.373 113.344 45.2151C113.46 45.0576 113.63 44.9523 113.859 44.8209V44.2422L113.831 44.2427C113.46 44.322 113.116 44.4262 112.774 44.5587C112.43 44.664 112.145 44.848 111.887 45.0853C111.631 45.2954 111.488 45.5842 111.431 45.9268C111.402 46.031 111.402 46.1097 111.402 46.1358C111.402 46.3198 111.431 46.4518 111.545 46.5837C111.659 46.7161 111.774 46.7927 111.974 46.847C112.145 46.9246 112.345 46.9512 112.574 46.9512C112.859 46.9512 113.145 46.8996 113.46 46.7927C113.602 46.7411 113.745 46.6624 113.859 46.5837L113.859 45.9784C113.744 46.056 113.631 46.0831 113.516 46.0831Z" fill="#EA2127"/>
</svg>
